<svg width="22" height="24" viewBox="0 0 22 24" fill="none" xmlns="http://www.w3.org/2000/svg">
<rect y="0.926758" width="22" height="22.1464" rx="4" fill="#FFF4F8"/>
<mask id="mask0_96_391" style="mask-type:luminance" maskUnits="userSpaceOnUse" x="4" y="4" width="14" height="16">
<path d="M18 4.92676H4V19.0732H18V4.92676Z" fill="white"/>
</mask>
<g mask="url(#mask0_96_391)">
<path d="M15.9424 16.9906C17.2625 15.6654 18.0026 13.8704 18 12C17.9986 11.8845 17.9518 11.7743 17.8696 11.6932C17.7875 11.612 17.6767 11.5665 17.5613 11.5665C17.4458 11.5665 17.335 11.612 17.2528 11.6932C17.1707 11.7743 17.1239 11.8845 17.1225 12C17.1243 13.6392 16.4754 15.2121 15.3184 16.3733C14.7567 16.9499 14.0852 17.4083 13.3435 17.7212C12.6019 18.0342 11.805 18.1954 11 18.1954C10.195 18.1954 9.39814 18.0342 8.65646 17.7212C7.91478 17.4083 7.24328 16.9499 6.6816 16.3733C5.52612 15.211 4.87755 13.6387 4.87755 11.9997C4.87755 10.3608 5.52612 8.78844 6.6816 7.62613C7.24001 7.05391 7.90647 6.59823 8.64232 6.28552C9.37817 5.9728 10.1688 5.80927 10.9683 5.8044C11.139 5.80975 11.3009 5.88159 11.4194 6.00458C11.5379 6.12757 11.6037 6.292 11.6027 6.4628C11.6017 6.63359 11.534 6.79724 11.4141 6.91885C11.2942 7.04046 11.1315 7.1104 10.9607 7.11376C10.9449 7.11379 10.9291 7.11467 10.9134 7.11639C9.69696 7.15556 8.54279 7.66346 7.69219 8.53389C6.79389 9.43818 6.28972 10.6611 6.28972 11.9357C6.28972 13.2104 6.79389 14.4332 7.69219 15.3375C8.13104 15.7871 8.65537 16.1443 9.23432 16.3882C9.81327 16.6321 10.4352 16.7577 11.0634 16.7577C11.6916 16.7577 12.3135 16.6321 12.8925 16.3882C13.4714 16.1443 13.9957 15.7871 14.4346 15.3375C15.3343 14.4342 15.8387 13.2107 15.8369 11.9357C15.8387 11.7349 15.8007 11.5356 15.7252 11.3496C15.6496 11.1635 15.5379 10.9943 15.3965 10.8516C15.2551 10.7089 15.0869 10.5957 14.9016 10.5184C14.7162 10.4411 14.5174 10.4013 14.3165 10.4013C14.1157 10.4013 13.9168 10.4411 13.7315 10.5184C13.5461 10.5957 13.3779 10.7089 13.2365 10.8516C13.0951 10.9943 12.9835 11.1635 12.9079 11.3496C12.8323 11.5356 12.7943 11.7349 12.7962 11.9357C12.7962 11.9485 12.797 11.9605 12.798 11.9728C12.797 11.9851 12.7962 11.9974 12.7962 12.01C12.7991 12.3601 12.6978 12.7032 12.5054 12.9957C12.3129 13.2882 12.0379 13.5169 11.7153 13.6529C11.3926 13.7889 11.0368 13.8259 10.6931 13.7594C10.3493 13.6928 10.0331 13.5257 9.7845 13.2791C9.5359 13.0325 9.36615 12.7177 9.29678 12.3745C9.22742 12.0313 9.26157 11.6752 9.39489 11.3515C9.52822 11.0277 9.75471 10.7508 10.0456 10.556C10.3366 10.3612 10.6788 10.2572 11.0289 10.2571C11.087 10.2578 11.1446 10.247 11.1985 10.2253C11.2523 10.2035 11.3013 10.1713 11.3426 10.1305C11.3839 10.0897 11.4168 10.0411 11.4391 9.98752C11.4615 9.93394 11.4731 9.87645 11.4731 9.81838C11.4731 9.76031 11.4615 9.70281 11.4391 9.64923C11.4168 9.59565 11.3839 9.54704 11.3426 9.50623C11.3013 9.46541 11.2523 9.43321 11.1985 9.41147C11.1446 9.38974 11.087 9.3789 11.0289 9.37961C10.5093 9.38249 10.0022 9.53922 9.57155 9.83C9.1409 10.1208 8.80602 10.5326 8.60916 11.0135C8.41231 11.4944 8.36231 12.0228 8.46545 12.5321C8.56859 13.0414 8.82026 13.5087 9.18872 13.8752C9.55717 14.2416 10.0259 14.4906 10.5358 14.591C11.0456 14.6913 11.5738 14.6383 12.0536 14.4388C12.5333 14.2393 12.9433 13.9021 13.2317 13.4699C13.5201 13.0376 13.674 12.5296 13.674 12.01C13.674 11.9972 13.6731 11.9851 13.6721 11.9728C13.6731 11.9605 13.674 11.9483 13.674 11.9357C13.6722 11.8502 13.6876 11.7653 13.7192 11.6857C13.7507 11.6063 13.7978 11.5338 13.8576 11.4728C13.9175 11.4117 13.9889 11.3632 14.0678 11.3301C14.1466 11.297 14.2313 11.2799 14.3168 11.2799C14.4023 11.2799 14.487 11.297 14.5658 11.3301C14.6446 11.3632 14.7161 11.4117 14.7759 11.4728C14.8357 11.5338 14.8829 11.6063 14.9144 11.6857C14.9459 11.7653 14.9613 11.8502 14.9596 11.9357C14.9607 12.9795 14.5475 13.9811 13.8107 14.7204C13.4535 15.0875 13.0264 15.3791 12.5545 15.5783C12.0827 15.7775 11.5757 15.8801 11.0635 15.8801C10.5514 15.8801 10.0444 15.7775 9.57258 15.5783C9.10074 15.3791 8.6736 15.0875 8.31636 14.7204C7.58055 13.9804 7.16754 12.9793 7.16754 11.9357C7.16754 10.8921 7.58055 9.89097 8.31636 9.15095C8.67388 8.78441 9.10104 8.493 9.57276 8.29386C10.0445 8.09472 10.5512 7.99185 11.0633 7.9913C11.1026 7.99119 11.1418 7.98577 11.1798 7.97516C11.5534 7.91788 11.8925 7.72469 12.1324 7.43267C12.3722 7.14065 12.4958 6.77035 12.4794 6.39282C12.463 6.01529 12.3078 5.6571 12.0435 5.38698C11.7793 5.11685 11.4246 4.9538 11.0475 4.92911C11.0318 4.92739 11.0159 4.92652 11 4.92648C10.9912 4.92648 10.9824 4.92648 10.9736 4.92648C10.9692 4.92648 10.965 4.92648 10.9607 4.92648C10.9565 4.92648 10.9522 4.927 10.9479 4.92712C10.0358 4.9343 9.13403 5.12196 8.29473 5.4793C7.45542 5.83663 6.69515 6.35657 6.05775 7.00914C4.73981 8.33571 4.00012 10.1297 4.00012 11.9997C4.00012 13.8697 4.73981 15.6637 6.05775 16.9903C6.70104 17.6495 7.46971 18.1734 8.3185 18.531C9.16729 18.8886 10.0791 19.0729 11.0001 19.0729C11.9212 19.0729 12.8329 18.8886 13.6818 18.531C14.5306 18.1734 15.2992 17.6495 15.9425 16.9903L15.9424 16.9906Z" fill="url(#paint0_linear_96_391)"/>
</g>
<defs>
<linearGradient id="paint0_linear_96_391" x1="6.03011" y1="16.9651" x2="14.9267" y2="8.25866" gradientUnits="userSpaceOnUse">
<stop stop-color="#41287B"/>
<stop offset="0.123" stop-color="#462779"/>
<stop offset="0.284" stop-color="#572775"/>
<stop offset="0.465" stop-color="#72266E"/>
<stop offset="0.663" stop-color="#982565"/>
<stop offset="0.87" stop-color="#C82459"/>
<stop offset="0.99" stop-color="#E72452"/>
</linearGradient>
</defs>
</svg>
